# xmcd
#
# Track frame offsets:
#	150
#	17714
#	26048
#	43296
#	53691
#	68169
#	80943
#	93148
#	105873
#	117287
#	136873
#	151368
#	162444
#	176394
#	188966
#
# Disc length: 2878 seconds
#
# Revision: 2
# Processed by: cddbd v1.5.1PL0 Copyright (c) Steve Scherf et al.
# Submitted via: audiograbber 1.83.01
#
DISCID=bf0b3c0f
DTITLE=Various Artist - Go West
DYEAR=2000
DGENRE=Country
TTITLE0=Ned Nash Orchestra - Once Upon A Time In The West
TTITLE1=Ned Nash Orchestra - I Will Find You
TTITLE2=Ned Nash Orchestra - Dance With Wolves
TTITLE3=Ned Nash Orchestra - The Impossible Dream
TTITLE4=Ned Nash Orchestra - Big Country
TTITLE5=Ned Nash Orchestra - Streets Of Laredo
TTITLE6=Johnny Cash - Next In Line
TTITLE7=Ned Nash Orchestra - These Boots Are Made For Walking
TTITLE8=Don Gibson - Oh, Lonesome Me
TTITLE9=Ned Nash Orchestra - Wand'rin Star
TTITLE10=Ned Nash Orchestra - Cowboys And Clowns
TTITLE11=Ned Nash Orchestra - Knocking On Heavens Door
TTITLE12=Ned Nash Orchestra - My Heroes Have Always Been Cowboys
TTITLE13=Freddy Fender - Silver Wings
TTITLE14=Ned Nash Orchestra - Good Luck Jack
EXTD=
EXTT0=Ennio Morricone
EXTT1=C. Brennan
EXTT2=J. Barry
EXTT3=J. Darion - M. Leigh
EXTT4=J. Moross
EXTT5=Trad. - Arr.: R. Sarc
EXTT6=
EXTT7=L. Hazlewood
EXTT8=
EXTT9=F. Löwe - A. G. Lerner
EXTT10=Bronco Billy (R. Misap)
EXTT11=Bob Dylan
EXTT12=S. Vaughan
EXTT13=Haffard
EXTT14=Ennio Morricone
PLAYORDER=
